<mxfile host="app.diagrams.net" agent="Mozilla/5.0 (Windows NT 10.0; Win64; x64) AppleWebKit/537.36 (KHTML, like Gecko) Chrome/130.0.0.0 Safari/537.36" version="24.8.6">
  <diagram id="C5RBs43oDa-KdzZeNtuy" name="Page-1">
    <mxGraphModel dx="1757" dy="1281" grid="0" gridSize="10" guides="1" tooltips="1" connect="1" arrows="1" fold="1" page="0" pageScale="1" pageWidth="827" pageHeight="1169" math="0" shadow="0">
      <root>
        <mxCell id="WIyWlLk6GJQsqaUBKTNV-0" />
        <mxCell id="WIyWlLk6GJQsqaUBKTNV-1" parent="WIyWlLk6GJQsqaUBKTNV-0" />
        <mxCell id="mP84a995uQE2WTxL-GDR-20" style="edgeStyle=orthogonalEdgeStyle;rounded=0;orthogonalLoop=1;jettySize=auto;html=1;exitX=1;exitY=0.5;exitDx=0;exitDy=0;entryX=0;entryY=0.5;entryDx=0;entryDy=0;" parent="WIyWlLk6GJQsqaUBKTNV-1" source="WIyWlLk6GJQsqaUBKTNV-3" target="mP84a995uQE2WTxL-GDR-1" edge="1">
          <mxGeometry relative="1" as="geometry" />
        </mxCell>
        <mxCell id="WIyWlLk6GJQsqaUBKTNV-3" value="&lt;b&gt;Dataset Acquisition&lt;/b&gt;" style="rounded=1;whiteSpace=wrap;html=1;fontSize=12;glass=0;strokeWidth=1;shadow=0;fillColor=#fff2cc;strokeColor=#d6b656;" parent="WIyWlLk6GJQsqaUBKTNV-1" vertex="1">
          <mxGeometry y="10" width="120" height="40" as="geometry" />
        </mxCell>
        <mxCell id="WIyWlLk6GJQsqaUBKTNV-4" value="Yes" style="rounded=0;html=1;jettySize=auto;orthogonalLoop=1;fontSize=11;endArrow=block;endFill=0;endSize=8;strokeWidth=1;shadow=0;labelBackgroundColor=none;edgeStyle=orthogonalEdgeStyle;exitX=0.5;exitY=1;exitDx=0;exitDy=0;fontColor=none;noLabel=1;entryX=0.5;entryY=0;entryDx=0;entryDy=0;" parent="WIyWlLk6GJQsqaUBKTNV-1" source="mP84a995uQE2WTxL-GDR-1" target="mP84a995uQE2WTxL-GDR-4" edge="1">
          <mxGeometry y="20" relative="1" as="geometry">
            <mxPoint as="offset" />
            <mxPoint x="70" y="190" as="sourcePoint" />
            <mxPoint x="70" y="230" as="targetPoint" />
          </mxGeometry>
        </mxCell>
        <mxCell id="mP84a995uQE2WTxL-GDR-1" value="&lt;b&gt;Clean Data&lt;/b&gt;&lt;div&gt;&lt;b&gt;&lt;br&gt;&lt;/b&gt;&lt;div&gt;(Missing data,&amp;nbsp;&lt;/div&gt;&lt;div&gt;convert data types)&lt;/div&gt;&lt;/div&gt;" style="rounded=0;whiteSpace=wrap;html=1;strokeColor=#d6b656;fillColor=#fff2cc;" parent="WIyWlLk6GJQsqaUBKTNV-1" vertex="1">
          <mxGeometry x="165" width="120" height="60" as="geometry" />
        </mxCell>
        <mxCell id="mP84a995uQE2WTxL-GDR-7" style="edgeStyle=orthogonalEdgeStyle;rounded=0;orthogonalLoop=1;jettySize=auto;html=1;entryX=0;entryY=0.5;entryDx=0;entryDy=0;exitX=1;exitY=0.5;exitDx=0;exitDy=0;" parent="WIyWlLk6GJQsqaUBKTNV-1" source="McBkm4UPR-PMK-ZoaOz2-7" target="mP84a995uQE2WTxL-GDR-6" edge="1">
          <mxGeometry relative="1" as="geometry">
            <mxPoint x="520" y="205.05882352941182" as="sourcePoint" />
          </mxGeometry>
        </mxCell>
        <mxCell id="mP84a995uQE2WTxL-GDR-4" value="&lt;b&gt;Exploratory Data Analysis&lt;/b&gt;&lt;div&gt;&lt;b&gt;(EDA)&lt;/b&gt;&lt;/div&gt;&lt;div&gt;&lt;b&gt;&lt;br&gt;&lt;/b&gt;&lt;/div&gt;&lt;div&gt;&lt;b&gt;&lt;br&gt;&lt;/b&gt;&lt;/div&gt;&lt;div&gt;&lt;div&gt;&lt;div&gt;(O&lt;span style=&quot;background-color: initial;&quot;&gt;utlier checks,&amp;nbsp;&lt;/span&gt;&lt;/div&gt;&lt;div&gt;&lt;span style=&quot;background-color: initial;&quot;&gt;representation checks,&lt;/span&gt;&lt;/div&gt;&lt;div&gt;&lt;span style=&quot;background-color: initial;&quot;&gt;analytical observations)&lt;/span&gt;&lt;/div&gt;&lt;/div&gt;&lt;/div&gt;" style="whiteSpace=wrap;html=1;aspect=fixed;fillColor=#ffe6cc;strokeColor=#d79b00;" parent="WIyWlLk6GJQsqaUBKTNV-1" vertex="1">
          <mxGeometry x="140" y="120" width="170" height="170" as="geometry" />
        </mxCell>
        <mxCell id="mP84a995uQE2WTxL-GDR-19" style="edgeStyle=orthogonalEdgeStyle;rounded=0;orthogonalLoop=1;jettySize=auto;html=1;exitX=0.5;exitY=1;exitDx=0;exitDy=0;entryX=0.5;entryY=0;entryDx=0;entryDy=0;" parent="WIyWlLk6GJQsqaUBKTNV-1" source="mP84a995uQE2WTxL-GDR-6" target="mP84a995uQE2WTxL-GDR-8" edge="1">
          <mxGeometry relative="1" as="geometry" />
        </mxCell>
        <mxCell id="mP84a995uQE2WTxL-GDR-6" value="&lt;b&gt;Data Preparation&lt;/b&gt;&lt;div&gt;&lt;b&gt;&lt;br&gt;&lt;/b&gt;&lt;div&gt;(Normalization&amp;nbsp;&lt;span style=&quot;background-color: initial;&quot;&gt;of scales,&lt;/span&gt;&lt;span style=&quot;background-color: initial;&quot;&gt;&amp;nbsp;&lt;/span&gt;&lt;/div&gt;&lt;div&gt;&lt;span style=&quot;background-color: initial;&quot;&gt;o&lt;/span&gt;&lt;span style=&quot;background-color: initial;&quot;&gt;ne-hot encoding of categorical variables,&lt;/span&gt;&lt;span style=&quot;background-color: initial;&quot;&gt;&amp;nbsp;&lt;/span&gt;&lt;/div&gt;&lt;div&gt;&lt;span style=&quot;background-color: initial;&quot;&gt;and preperation of data subsets for stability analysis)&lt;/span&gt;&lt;/div&gt;&lt;/div&gt;" style="rounded=0;whiteSpace=wrap;html=1;fillColor=#ffe6cc;strokeColor=#d79b00;" parent="WIyWlLk6GJQsqaUBKTNV-1" vertex="1">
          <mxGeometry x="550" y="120" width="200" height="170" as="geometry" />
        </mxCell>
        <mxCell id="mP84a995uQE2WTxL-GDR-14" style="edgeStyle=orthogonalEdgeStyle;rounded=0;orthogonalLoop=1;jettySize=auto;html=1;exitX=0.5;exitY=1;exitDx=0;exitDy=0;entryX=0.5;entryY=0;entryDx=0;entryDy=0;" parent="WIyWlLk6GJQsqaUBKTNV-1" source="mP84a995uQE2WTxL-GDR-8" target="mP84a995uQE2WTxL-GDR-13" edge="1">
          <mxGeometry relative="1" as="geometry" />
        </mxCell>
        <mxCell id="mP84a995uQE2WTxL-GDR-8" value="&lt;b&gt;Cluster Modelling&lt;/b&gt;&lt;div&gt;&lt;b&gt;&amp;nbsp;&lt;/b&gt;&lt;div&gt;1. K-means,&lt;/div&gt;&lt;div&gt;&amp;nbsp;2. DBSCAN,&lt;/div&gt;&lt;div&gt;3. HDBSCAN&lt;br&gt;&lt;/div&gt;&lt;/div&gt;" style="whiteSpace=wrap;html=1;aspect=fixed;fillColor=#e1d5e7;strokeColor=#9673a6;" parent="WIyWlLk6GJQsqaUBKTNV-1" vertex="1">
          <mxGeometry x="590" y="440" width="120" height="120" as="geometry" />
        </mxCell>
        <mxCell id="mP84a995uQE2WTxL-GDR-18" style="edgeStyle=orthogonalEdgeStyle;rounded=0;orthogonalLoop=1;jettySize=auto;html=1;exitX=1;exitY=0.5;exitDx=0;exitDy=0;entryX=0;entryY=0.5;entryDx=0;entryDy=0;" parent="WIyWlLk6GJQsqaUBKTNV-1" source="mP84a995uQE2WTxL-GDR-13" target="mP84a995uQE2WTxL-GDR-15" edge="1">
          <mxGeometry relative="1" as="geometry" />
        </mxCell>
        <mxCell id="mP84a995uQE2WTxL-GDR-13" value="&lt;b&gt;Validation and Verification&lt;/b&gt;&lt;div&gt;&lt;b&gt;&lt;br&gt;&lt;/b&gt;&lt;div&gt;(Silhouette Score,&lt;span style=&quot;background-color: initial;&quot;&gt;&amp;nbsp;&lt;/span&gt;&lt;/div&gt;&lt;div&gt;stability analysis,&lt;/div&gt;&lt;div&gt;&lt;span style=&quot;background-color: initial;&quot;&gt;Visualizations)&lt;/span&gt;&lt;/div&gt;&lt;/div&gt;" style="rounded=1;whiteSpace=wrap;html=1;fillColor=#dae8fc;strokeColor=#6c8ebf;" parent="WIyWlLk6GJQsqaUBKTNV-1" vertex="1">
          <mxGeometry x="560" y="672.5" width="180" height="142.5" as="geometry" />
        </mxCell>
        <mxCell id="mP84a995uQE2WTxL-GDR-15" value="&lt;b&gt;Extract Meaning&lt;/b&gt;&lt;div&gt;&lt;b&gt;&lt;br&gt;&lt;/b&gt;&lt;div&gt;&lt;div&gt;&lt;span style=&quot;background-color: initial;&quot;&gt;Chi-squared test,&lt;/span&gt;&lt;/div&gt;&lt;div&gt;&lt;span style=&quot;background-color: initial;&quot;&gt;Cramer&#39;s V,&amp;nbsp;&lt;/span&gt;&lt;/div&gt;&lt;div&gt;&lt;span style=&quot;background-color: initial;&quot;&gt;&amp;nbsp;z-statistics,&lt;/span&gt;&lt;/div&gt;&lt;div&gt;Visualizations,&lt;/div&gt;&lt;/div&gt;&lt;/div&gt;&lt;div&gt;Domain specialists&lt;/div&gt;" style="rounded=1;whiteSpace=wrap;html=1;fillColor=#bac8d3;strokeColor=#23445d;" parent="WIyWlLk6GJQsqaUBKTNV-1" vertex="1">
          <mxGeometry x="810" y="666.25" width="140" height="155" as="geometry" />
        </mxCell>
        <mxCell id="njs5Jvh4_X5A6RJL9aAm-0" style="edgeStyle=orthogonalEdgeStyle;rounded=0;orthogonalLoop=1;jettySize=auto;html=1;exitX=1;exitY=0.5;exitDx=0;exitDy=0;entryX=0;entryY=0.5;entryDx=0;entryDy=0;" parent="WIyWlLk6GJQsqaUBKTNV-1" source="McBkm4UPR-PMK-ZoaOz2-0" target="mP84a995uQE2WTxL-GDR-8" edge="1">
          <mxGeometry relative="1" as="geometry" />
        </mxCell>
        <mxCell id="McBkm4UPR-PMK-ZoaOz2-0" value="&lt;b&gt;Principle Component Analysis&lt;/b&gt;&lt;div&gt;&lt;br&gt;&lt;/div&gt;&lt;div&gt;&lt;b&gt;Uniform Manifold Approximation and Projection&lt;/b&gt;&lt;/div&gt;" style="whiteSpace=wrap;html=1;aspect=fixed;fillColor=#e1d5e7;strokeColor=#9673a6;" parent="WIyWlLk6GJQsqaUBKTNV-1" vertex="1">
          <mxGeometry x="403" y="440" width="120" height="120" as="geometry" />
        </mxCell>
        <mxCell id="McBkm4UPR-PMK-ZoaOz2-4" value="" style="edgeStyle=orthogonalEdgeStyle;rounded=0;orthogonalLoop=1;jettySize=auto;html=1;entryX=0;entryY=0.5;entryDx=0;entryDy=0;" parent="WIyWlLk6GJQsqaUBKTNV-1" source="mP84a995uQE2WTxL-GDR-4" target="McBkm4UPR-PMK-ZoaOz2-7" edge="1">
          <mxGeometry relative="1" as="geometry">
            <mxPoint x="310" y="205" as="sourcePoint" />
            <mxPoint x="350" y="205" as="targetPoint" />
          </mxGeometry>
        </mxCell>
        <mxCell id="McBkm4UPR-PMK-ZoaOz2-7" value="&lt;b&gt;Feature Selection&lt;br&gt;&lt;/b&gt;&lt;div&gt;&lt;b&gt;&lt;br&gt;&lt;/b&gt;&lt;div&gt;(&lt;span style=&quot;background-color: initial;&quot;&gt;Dimensionality reduction)&lt;/span&gt;&lt;/div&gt;&lt;/div&gt;&lt;div&gt;&lt;span style=&quot;background-color: initial;&quot;&gt;&lt;br&gt;&lt;/span&gt;&lt;/div&gt;&lt;div&gt;&lt;span style=&quot;background-color: initial;&quot;&gt;Trial with high proportion of instances and less variables&lt;/span&gt;&lt;/div&gt;&lt;div&gt;&lt;span style=&quot;background-color: initial;&quot;&gt;Trial with low proportion of&lt;/span&gt;&lt;/div&gt;" style="rounded=0;whiteSpace=wrap;html=1;fillColor=#ffe6cc;strokeColor=#d79b00;" parent="WIyWlLk6GJQsqaUBKTNV-1" vertex="1">
          <mxGeometry x="350" y="120" width="170" height="170" as="geometry" />
        </mxCell>
        <mxCell id="McBkm4UPR-PMK-ZoaOz2-8" value="" style="endArrow=none;dashed=1;html=1;dashPattern=1 3;strokeWidth=2;rounded=0;exitX=1;exitY=0.75;exitDx=0;exitDy=0;entryX=0;entryY=0.75;entryDx=0;entryDy=0;" parent="WIyWlLk6GJQsqaUBKTNV-1" source="McBkm4UPR-PMK-ZoaOz2-7" target="mP84a995uQE2WTxL-GDR-6" edge="1">
          <mxGeometry width="50" height="50" relative="1" as="geometry">
            <mxPoint x="550" y="430" as="sourcePoint" />
            <mxPoint x="600" y="380" as="targetPoint" />
          </mxGeometry>
        </mxCell>
        <mxCell id="McBkm4UPR-PMK-ZoaOz2-9" value="" style="endArrow=none;dashed=1;html=1;dashPattern=1 3;strokeWidth=2;rounded=0;exitX=0.75;exitY=1;exitDx=0;exitDy=0;entryX=0.91;entryY=0.02;entryDx=0;entryDy=0;entryPerimeter=0;" parent="WIyWlLk6GJQsqaUBKTNV-1" source="mP84a995uQE2WTxL-GDR-6" target="mP84a995uQE2WTxL-GDR-8" edge="1">
          <mxGeometry width="50" height="50" relative="1" as="geometry">
            <mxPoint x="530" y="258" as="sourcePoint" />
            <mxPoint x="560" y="258" as="targetPoint" />
          </mxGeometry>
        </mxCell>
        <mxCell id="McBkm4UPR-PMK-ZoaOz2-10" value="" style="endArrow=none;dashed=1;html=1;dashPattern=1 3;strokeWidth=2;rounded=0;exitX=0.75;exitY=1;exitDx=0;exitDy=0;entryX=0.25;entryY=0;entryDx=0;entryDy=0;" parent="WIyWlLk6GJQsqaUBKTNV-1" target="McBkm4UPR-PMK-ZoaOz2-0" edge="1">
          <mxGeometry width="50" height="50" relative="1" as="geometry">
            <mxPoint x="631" y="290" as="sourcePoint" />
            <mxPoint x="630" y="360" as="targetPoint" />
            <Array as="points">
              <mxPoint x="631" y="355" />
              <mxPoint x="433" y="355" />
            </Array>
          </mxGeometry>
        </mxCell>
        <mxCell id="McBkm4UPR-PMK-ZoaOz2-13" value="" style="endArrow=none;dashed=1;html=1;dashPattern=1 3;strokeWidth=2;rounded=0;entryX=1.014;entryY=0.353;entryDx=0;entryDy=0;entryPerimeter=0;" parent="WIyWlLk6GJQsqaUBKTNV-1" target="McBkm4UPR-PMK-ZoaOz2-0" edge="1">
          <mxGeometry width="50" height="50" relative="1" as="geometry">
            <mxPoint x="588" y="482" as="sourcePoint" />
            <mxPoint x="451" y="550" as="targetPoint" />
          </mxGeometry>
        </mxCell>
        <mxCell id="McBkm4UPR-PMK-ZoaOz2-16" value="" style="endArrow=none;dashed=1;html=1;dashPattern=1 3;strokeWidth=2;rounded=0;exitX=0.992;exitY=0.383;exitDx=0;exitDy=0;exitPerimeter=0;" parent="WIyWlLk6GJQsqaUBKTNV-1" source="mP84a995uQE2WTxL-GDR-13" edge="1">
          <mxGeometry width="50" height="50" relative="1" as="geometry">
            <mxPoint x="640" y="640" as="sourcePoint" />
            <mxPoint x="810" y="727" as="targetPoint" />
          </mxGeometry>
        </mxCell>
        <mxCell id="McBkm4UPR-PMK-ZoaOz2-17" value="" style="endArrow=none;dashed=1;html=1;dashPattern=1 3;strokeWidth=2;rounded=0;exitX=0.75;exitY=1;exitDx=0;exitDy=0;" parent="WIyWlLk6GJQsqaUBKTNV-1" edge="1">
          <mxGeometry width="50" height="50" relative="1" as="geometry">
            <mxPoint x="701" y="560" as="sourcePoint" />
            <mxPoint x="700" y="680" as="targetPoint" />
          </mxGeometry>
        </mxCell>
        <mxCell id="McBkm4UPR-PMK-ZoaOz2-18" value="&lt;font style=&quot;font-size: 18px;&quot;&gt;&lt;b&gt;Phase 2&lt;/b&gt;&lt;/font&gt;" style="text;html=1;align=center;verticalAlign=middle;whiteSpace=wrap;rounded=0;" parent="WIyWlLk6GJQsqaUBKTNV-1" vertex="1">
          <mxGeometry x="-150" y="180" width="90" height="30" as="geometry" />
        </mxCell>
        <mxCell id="McBkm4UPR-PMK-ZoaOz2-19" value="&lt;font style=&quot;font-size: 18px;&quot;&gt;&lt;b&gt;Phase 1&lt;/b&gt;&lt;/font&gt;" style="text;html=1;align=center;verticalAlign=middle;whiteSpace=wrap;rounded=0;" parent="WIyWlLk6GJQsqaUBKTNV-1" vertex="1">
          <mxGeometry x="-150" y="15" width="90" height="30" as="geometry" />
        </mxCell>
        <mxCell id="McBkm4UPR-PMK-ZoaOz2-20" value="&lt;font style=&quot;font-size: 18px;&quot;&gt;&lt;b&gt;Phase 3&lt;/b&gt;&lt;/font&gt;" style="text;html=1;align=center;verticalAlign=middle;whiteSpace=wrap;rounded=0;" parent="WIyWlLk6GJQsqaUBKTNV-1" vertex="1">
          <mxGeometry x="-150" y="465" width="90" height="30" as="geometry" />
        </mxCell>
        <mxCell id="McBkm4UPR-PMK-ZoaOz2-21" value="&lt;font style=&quot;font-size: 18px;&quot;&gt;&lt;b&gt;Phase 4&lt;/b&gt;&lt;/font&gt;" style="text;html=1;align=center;verticalAlign=middle;whiteSpace=wrap;rounded=0;" parent="WIyWlLk6GJQsqaUBKTNV-1" vertex="1">
          <mxGeometry x="-150" y="718.75" width="90" height="30" as="geometry" />
        </mxCell>
        <mxCell id="McBkm4UPR-PMK-ZoaOz2-23" value="" style="endArrow=none;html=1;rounded=1;curved=0;opacity=70;dashed=1;dashPattern=1 2;" parent="WIyWlLk6GJQsqaUBKTNV-1" edge="1">
          <mxGeometry width="50" height="50" relative="1" as="geometry">
            <mxPoint x="-160" y="70" as="sourcePoint" />
            <mxPoint x="524" y="70" as="targetPoint" />
          </mxGeometry>
        </mxCell>
        <mxCell id="McBkm4UPR-PMK-ZoaOz2-24" value="" style="endArrow=none;html=1;rounded=1;curved=0;opacity=70;dashed=1;dashPattern=1 2;" parent="WIyWlLk6GJQsqaUBKTNV-1" edge="1">
          <mxGeometry width="50" height="50" relative="1" as="geometry">
            <mxPoint x="-160" y="330" as="sourcePoint" />
            <mxPoint x="760" y="330" as="targetPoint" />
          </mxGeometry>
        </mxCell>
        <mxCell id="McBkm4UPR-PMK-ZoaOz2-25" value="" style="endArrow=none;html=1;rounded=1;curved=0;opacity=70;dashed=1;dashPattern=1 2;" parent="WIyWlLk6GJQsqaUBKTNV-1" edge="1">
          <mxGeometry width="50" height="50" relative="1" as="geometry">
            <mxPoint x="-160" y="610" as="sourcePoint" />
            <mxPoint x="760" y="610" as="targetPoint" />
          </mxGeometry>
        </mxCell>
        <mxCell id="McBkm4UPR-PMK-ZoaOz2-26" value="" style="endArrow=none;html=1;rounded=1;curved=0;opacity=70;dashed=1;dashPattern=1 2;" parent="WIyWlLk6GJQsqaUBKTNV-1" edge="1">
          <mxGeometry width="50" height="50" relative="1" as="geometry">
            <mxPoint x="-160" y="840" as="sourcePoint" />
            <mxPoint x="960" y="840" as="targetPoint" />
          </mxGeometry>
        </mxCell>
        <mxCell id="McBkm4UPR-PMK-ZoaOz2-27" value="&lt;b&gt;Context Research&lt;/b&gt;&lt;div&gt;(Feature relevance and context understanding)&lt;/div&gt;" style="rounded=1;whiteSpace=wrap;html=1;" parent="WIyWlLk6GJQsqaUBKTNV-1" vertex="1">
          <mxGeometry x="339" y="-10" width="181" height="60" as="geometry" />
        </mxCell>
        <mxCell id="njs5Jvh4_X5A6RJL9aAm-2" value="" style="endArrow=classic;html=1;rounded=0;entryX=0.5;entryY=0;entryDx=0;entryDy=0;" parent="WIyWlLk6GJQsqaUBKTNV-1" target="McBkm4UPR-PMK-ZoaOz2-0" edge="1">
          <mxGeometry width="50" height="50" relative="1" as="geometry">
            <mxPoint x="650" y="372" as="sourcePoint" />
            <mxPoint x="385" y="320" as="targetPoint" />
            <Array as="points">
              <mxPoint x="463" y="370" />
            </Array>
          </mxGeometry>
        </mxCell>
      </root>
    </mxGraphModel>
  </diagram>
</mxfile>
